<svg width="300" height="200" viewBox="0 0 300 200" fill="none" xmlns="http://www.w3.org/2000/svg">
<path d="M95.5361 79.6807V77.1875C97.8848 76.9587 99.5228 76.5793 100.45 76.0493C101.378 75.5073 102.07 74.2367 102.528 72.2373H105.093V98H101.625V79.6807H95.5361ZM114.386 79.6807V77.1875C116.734 76.9587 118.372 76.5793 119.3 76.0493C120.227 75.5073 120.92 74.2367 121.377 72.2373H123.943V98H120.474V79.6807H114.386ZM135.512 101.776C136.343 101.631 136.927 101.047 137.264 100.023C137.445 99.4814 137.535 98.9575 137.535 98.4517C137.535 98.3674 137.529 98.2891 137.517 98.2168C137.517 98.1566 137.505 98.0843 137.481 98H135.512V94.0615H139.378V97.7109C139.378 99.1442 139.089 100.403 138.511 101.487C137.933 102.571 136.933 103.239 135.512 103.492V101.776ZM153.747 72.1289C157.095 72.1289 159.516 73.508 161.01 76.2661C162.166 78.3979 162.744 81.3187 162.744 85.0283C162.744 88.5452 162.22 91.4539 161.172 93.7544C159.655 97.0545 157.174 98.7046 153.729 98.7046C150.622 98.7046 148.309 97.3556 146.792 94.6577C145.527 92.4054 144.895 89.3823 144.895 85.5884C144.895 82.6496 145.274 80.1263 146.033 78.0186C147.454 74.0921 150.025 72.1289 153.747 72.1289ZM153.711 95.7417C155.397 95.7417 156.74 94.995 157.74 93.5015C158.739 92.008 159.239 89.2257 159.239 85.1548C159.239 82.216 158.878 79.8011 158.155 77.9102C157.433 76.0072 156.029 75.0557 153.946 75.0557C152.031 75.0557 150.628 75.959 149.736 77.7656C148.857 79.5602 148.417 82.21 148.417 85.7148C148.417 88.3525 148.701 90.4723 149.267 92.0742C150.134 94.5192 151.615 95.7417 153.711 95.7417ZM175.343 72.1289C178.691 72.1289 181.112 73.508 182.605 76.2661C183.762 78.3979 184.34 81.3187 184.34 85.0283C184.34 88.5452 183.816 91.4539 182.768 93.7544C181.25 97.0545 178.769 98.7046 175.325 98.7046C172.217 98.7046 169.905 97.3556 168.387 94.6577C167.123 92.4054 166.49 89.3823 166.49 85.5884C166.49 82.6496 166.87 80.1263 167.628 78.0186C169.05 74.0921 171.621 72.1289 175.343 72.1289ZM175.307 95.7417C176.993 95.7417 178.336 94.995 179.335 93.5015C180.335 92.008 180.835 89.2257 180.835 85.1548C180.835 82.216 180.474 79.8011 179.751 77.9102C179.028 76.0072 177.625 75.0557 175.542 75.0557C173.626 75.0557 172.223 75.959 171.332 77.7656C170.453 79.5602 170.013 82.21 170.013 85.7148C170.013 88.3525 170.296 90.4723 170.862 92.0742C171.729 94.5192 173.211 95.7417 175.307 95.7417ZM196.938 72.1289C200.287 72.1289 202.708 73.508 204.201 76.2661C205.357 78.3979 205.936 81.3187 205.936 85.0283C205.936 88.5452 205.412 91.4539 204.364 93.7544C202.846 97.0545 200.365 98.7046 196.92 98.7046C193.813 98.7046 191.5 97.3556 189.983 94.6577C188.718 92.4054 188.086 89.3823 188.086 85.5884C188.086 82.6496 188.465 80.1263 189.224 78.0186C190.645 74.0921 193.217 72.1289 196.938 72.1289ZM196.902 95.7417C198.589 95.7417 199.931 94.995 200.931 93.5015C201.931 92.008 202.431 89.2257 202.431 85.1548C202.431 82.216 202.069 79.8011 201.347 77.9102C200.624 76.0072 199.221 75.0557 197.137 75.0557C195.222 75.0557 193.819 75.959 192.928 77.7656C192.049 79.5602 191.609 82.21 191.609 85.7148C191.609 88.3525 191.892 90.4723 192.458 92.0742C193.325 94.5192 194.807 95.7417 196.902 95.7417Z" fill="#F087FF"/>
<path d="M33.8462 127.223C33.8735 127.711 33.9888 128.107 34.1919 128.412C34.5786 128.982 35.2603 129.268 36.2368 129.268C36.6743 129.268 37.0728 129.205 37.4321 129.08C38.1274 128.838 38.4751 128.404 38.4751 127.779C38.4751 127.311 38.3286 126.977 38.0356 126.777C37.7388 126.582 37.2739 126.412 36.6411 126.268L35.4751 126.004C34.7134 125.832 34.1743 125.643 33.8579 125.436C33.311 125.076 33.0376 124.539 33.0376 123.824C33.0376 123.051 33.3052 122.416 33.8403 121.92C34.3755 121.424 35.1333 121.176 36.1138 121.176C37.0161 121.176 37.7817 121.395 38.4106 121.832C39.0435 122.266 39.3599 122.961 39.3599 123.918H38.2642C38.2056 123.457 38.0806 123.104 37.8892 122.857C37.5337 122.408 36.9302 122.184 36.0786 122.184C35.3911 122.184 34.897 122.328 34.5962 122.617C34.2954 122.906 34.145 123.242 34.145 123.625C34.145 124.047 34.3208 124.355 34.6724 124.551C34.9028 124.676 35.4243 124.832 36.2368 125.02L37.4438 125.295C38.0259 125.428 38.4751 125.609 38.7915 125.84C39.3384 126.242 39.6118 126.826 39.6118 127.592C39.6118 128.545 39.2642 129.227 38.5688 129.637C37.8774 130.047 37.0728 130.252 36.1548 130.252C35.0845 130.252 34.2466 129.979 33.6411 129.432C33.0356 128.889 32.7388 128.152 32.7505 127.223H33.8462ZM44.8032 121.158C46.3228 121.158 47.4478 121.646 48.1782 122.623C48.7485 123.385 49.0337 124.359 49.0337 125.547C49.0337 126.832 48.7075 127.9 48.0552 128.752C47.2896 129.752 46.1978 130.252 44.7798 130.252C43.4556 130.252 42.4146 129.814 41.6567 128.939C40.981 128.096 40.6431 127.029 40.6431 125.74C40.6431 124.576 40.9321 123.58 41.5103 122.752C42.2524 121.689 43.3501 121.158 44.8032 121.158ZM44.9204 129.209C45.9478 129.209 46.6899 128.842 47.147 128.107C47.6079 127.369 47.8384 126.521 47.8384 125.564C47.8384 124.553 47.5728 123.738 47.0415 123.121C46.5142 122.504 45.7915 122.195 44.8735 122.195C43.9829 122.195 43.2563 122.502 42.6938 123.115C42.1313 123.725 41.8501 124.625 41.8501 125.816C41.8501 126.77 42.0903 127.574 42.5708 128.23C43.0552 128.883 43.8384 129.209 44.9204 129.209ZM50.4282 121.393H51.5942V128.975H55.9536V130H50.4282V121.393ZM61.5259 126.473L60.2192 122.67L58.8306 126.473H61.5259ZM59.6099 121.393H60.9282L64.0513 130H62.7739L61.9009 127.422H58.4966L57.5649 130H56.3696L59.6099 121.393ZM65.1118 121.393H66.4888L70.8364 128.365V121.393H71.9438V130H70.6372L66.2251 123.033V130H65.1118V121.393ZM78.2017 126.473L76.895 122.67L75.5063 126.473H78.2017ZM76.2856 121.393H77.604L80.7271 130H79.4497L78.5767 127.422H75.1724L74.2407 130H73.0454L76.2856 121.393ZM84.5005 121.393H85.6782V124.949H90.1548V121.393H91.3325V130H90.1548V125.975H85.6782V130H84.5005V121.393ZM97.561 126.473L96.2544 122.67L94.8657 126.473H97.561ZM95.645 121.393H96.9634L100.086 130H98.8091L97.936 127.422H94.5317L93.6001 130H92.4048L95.645 121.393ZM104.774 121.158C105.864 121.158 106.709 121.445 107.311 122.02C107.913 122.594 108.247 123.246 108.313 123.977H107.176C107.047 123.422 106.79 122.982 106.403 122.658C106.02 122.334 105.481 122.172 104.786 122.172C103.938 122.172 103.252 122.471 102.729 123.068C102.209 123.662 101.95 124.574 101.95 125.805C101.95 126.812 102.184 127.631 102.653 128.26C103.125 128.885 103.829 129.197 104.762 129.197C105.622 129.197 106.276 128.867 106.725 128.207C106.963 127.859 107.141 127.402 107.258 126.836H108.395C108.293 127.742 107.958 128.502 107.387 129.115C106.704 129.854 105.782 130.223 104.622 130.223C103.622 130.223 102.782 129.92 102.102 129.314C101.208 128.514 100.76 127.277 100.76 125.605C100.76 124.336 101.096 123.295 101.768 122.482C102.495 121.6 103.497 121.158 104.774 121.158ZM109.819 121.393H110.956V125.588L115.151 121.393H116.762L113.182 124.861L116.862 130H115.344L112.333 125.682L110.956 127V130H109.819V121.393ZM117.934 121.393H124.209V122.447H119.071V125.061H123.823V126.057H119.071V128.975H124.297V130H117.934V121.393ZM129.829 125.336C130.375 125.336 130.807 125.227 131.124 125.008C131.444 124.789 131.604 124.395 131.604 123.824C131.604 123.211 131.381 122.793 130.936 122.57C130.698 122.453 130.379 122.395 129.981 122.395H127.133V125.336H129.829ZM125.967 121.393H129.952C130.608 121.393 131.149 121.488 131.575 121.68C132.383 122.047 132.788 122.725 132.788 123.713C132.788 124.229 132.68 124.65 132.465 124.979C132.254 125.307 131.958 125.57 131.575 125.77C131.911 125.906 132.163 126.086 132.331 126.309C132.502 126.531 132.598 126.893 132.618 127.393L132.659 128.547C132.67 128.875 132.698 129.119 132.741 129.279C132.811 129.553 132.936 129.729 133.116 129.807V130H131.686C131.647 129.926 131.616 129.83 131.592 129.713C131.569 129.596 131.549 129.369 131.534 129.033L131.463 127.598C131.436 127.035 131.227 126.658 130.836 126.467C130.614 126.361 130.264 126.309 129.788 126.309H127.133V130H125.967V121.393ZM137.868 121.393H139.045V124.949H143.522V121.393H144.7V130H143.522V125.975H139.045V130H137.868V121.393ZM150.225 121.158C151.745 121.158 152.87 121.646 153.6 122.623C154.17 123.385 154.456 124.359 154.456 125.547C154.456 126.832 154.129 127.9 153.477 128.752C152.711 129.752 151.62 130.252 150.202 130.252C148.877 130.252 147.836 129.814 147.079 128.939C146.403 128.096 146.065 127.029 146.065 125.74C146.065 124.576 146.354 123.58 146.932 122.752C147.674 121.689 148.772 121.158 150.225 121.158ZM150.342 129.209C151.37 129.209 152.112 128.842 152.569 128.107C153.03 127.369 153.26 126.521 153.26 125.564C153.26 124.553 152.995 123.738 152.463 123.121C151.936 122.504 151.213 122.195 150.295 122.195C149.405 122.195 148.678 122.502 148.116 123.115C147.553 123.725 147.272 124.625 147.272 125.816C147.272 126.77 147.512 127.574 147.993 128.23C148.477 128.883 149.26 129.209 150.342 129.209ZM157.116 121.393V126.713C157.116 127.338 157.233 127.857 157.467 128.271C157.815 128.896 158.401 129.209 159.225 129.209C160.213 129.209 160.885 128.871 161.241 128.195C161.432 127.828 161.528 127.334 161.528 126.713V121.393H162.711V126.227C162.711 127.285 162.569 128.1 162.284 128.67C161.76 129.709 160.772 130.229 159.319 130.229C157.866 130.229 156.879 129.709 156.36 128.67C156.075 128.1 155.932 127.285 155.932 126.227V121.393H157.116ZM165.284 127.223C165.311 127.711 165.426 128.107 165.629 128.412C166.016 128.982 166.698 129.268 167.674 129.268C168.112 129.268 168.51 129.205 168.87 129.08C169.565 128.838 169.913 128.404 169.913 127.779C169.913 127.311 169.766 126.977 169.473 126.777C169.176 126.582 168.711 126.412 168.079 126.268L166.913 126.004C166.151 125.832 165.612 125.643 165.295 125.436C164.749 125.076 164.475 124.539 164.475 123.824C164.475 123.051 164.743 122.416 165.278 121.92C165.813 121.424 166.571 121.176 167.551 121.176C168.454 121.176 169.219 121.395 169.848 121.832C170.481 122.266 170.797 122.961 170.797 123.918H169.702C169.643 123.457 169.518 123.104 169.327 122.857C168.971 122.408 168.368 122.184 167.516 122.184C166.829 122.184 166.334 122.328 166.034 122.617C165.733 122.906 165.583 123.242 165.583 123.625C165.583 124.047 165.758 124.355 166.11 124.551C166.34 124.676 166.862 124.832 167.674 125.02L168.881 125.295C169.463 125.428 169.913 125.609 170.229 125.84C170.776 126.242 171.049 126.826 171.049 127.592C171.049 128.545 170.702 129.227 170.006 129.637C169.315 130.047 168.51 130.252 167.592 130.252C166.522 130.252 165.684 129.979 165.079 129.432C164.473 128.889 164.176 128.152 164.188 127.223H165.284ZM172.637 121.393H178.913V122.447H173.774V125.061H178.526V126.057H173.774V128.975H179V130H172.637V121.393ZM183.981 121.393H187.854C188.62 121.393 189.237 121.609 189.706 122.043C190.174 122.473 190.409 123.078 190.409 123.859C190.409 124.531 190.2 125.117 189.782 125.617C189.364 126.113 188.721 126.361 187.854 126.361H185.147V130H183.981V121.393ZM189.231 123.865C189.231 123.232 188.997 122.803 188.528 122.576C188.27 122.455 187.917 122.395 187.467 122.395H185.147V125.377H187.467C187.991 125.377 188.415 125.266 188.739 125.043C189.067 124.82 189.231 124.428 189.231 123.865ZM195.401 126.473L194.094 122.67L192.706 126.473H195.401ZM193.485 121.393H194.803L197.926 130H196.649L195.776 127.422H192.372L191.44 130H190.245L193.485 121.393ZM202.989 125.336C203.536 125.336 203.967 125.227 204.284 125.008C204.604 124.789 204.764 124.395 204.764 123.824C204.764 123.211 204.542 122.793 204.096 122.57C203.858 122.453 203.54 122.395 203.141 122.395H200.293V125.336H202.989ZM199.127 121.393H203.112C203.768 121.393 204.309 121.488 204.735 121.68C205.543 122.047 205.948 122.725 205.948 123.713C205.948 124.229 205.84 124.65 205.625 124.979C205.415 125.307 205.118 125.57 204.735 125.77C205.071 125.906 205.323 126.086 205.491 126.309C205.663 126.531 205.758 126.893 205.778 127.393L205.819 128.547C205.831 128.875 205.858 129.119 205.901 129.279C205.971 129.553 206.096 129.729 206.276 129.807V130H204.846C204.807 129.926 204.776 129.83 204.752 129.713C204.729 129.596 204.709 129.369 204.694 129.033L204.624 127.598C204.596 127.035 204.387 126.658 203.997 126.467C203.774 126.361 203.424 126.309 202.948 126.309H200.293V130H199.127V121.393ZM213.711 121.393V122.418H210.811V130H209.627V122.418H206.727V121.393H213.711ZM215.047 121.393H216.225V130H215.047V121.393ZM221.75 121.158C222.84 121.158 223.686 121.445 224.288 122.02C224.889 122.594 225.223 123.246 225.29 123.977H224.153C224.024 123.422 223.766 122.982 223.379 122.658C222.997 122.334 222.458 122.172 221.762 122.172C220.915 122.172 220.229 122.471 219.706 123.068C219.186 123.662 218.926 124.574 218.926 125.805C218.926 126.812 219.161 127.631 219.629 128.26C220.102 128.885 220.805 129.197 221.739 129.197C222.598 129.197 223.252 128.867 223.702 128.207C223.94 127.859 224.118 127.402 224.235 126.836H225.372C225.27 127.742 224.934 128.502 224.364 129.115C223.68 129.854 222.758 130.223 221.598 130.223C220.598 130.223 219.758 129.92 219.079 129.314C218.184 128.514 217.737 127.277 217.737 125.605C217.737 124.336 218.073 123.295 218.745 122.482C219.471 121.6 220.473 121.158 221.75 121.158ZM227.059 121.393H228.237V130H227.059V121.393ZM230.247 121.393H234.12C234.885 121.393 235.502 121.609 235.971 122.043C236.44 122.473 236.674 123.078 236.674 123.859C236.674 124.531 236.465 125.117 236.047 125.617C235.629 126.113 234.987 126.361 234.12 126.361H231.413V130H230.247V121.393ZM235.497 123.865C235.497 123.232 235.262 122.803 234.793 122.576C234.536 122.455 234.182 122.395 233.733 122.395H231.413V125.377H233.733C234.256 125.377 234.68 125.266 235.004 125.043C235.333 124.82 235.497 124.428 235.497 123.865ZM241.667 126.473L240.36 122.67L238.971 126.473H241.667ZM239.75 121.393H241.069L244.192 130H242.915L242.042 127.422H238.637L237.706 130H236.51L239.75 121.393ZM245.252 121.393H246.629L250.977 128.365V121.393H252.084V130H250.778L246.366 123.033V130H245.252V121.393ZM260.188 121.393V122.418H257.288V130H256.104V122.418H253.204V121.393H260.188ZM262.022 127.223C262.049 127.711 262.165 128.107 262.368 128.412C262.754 128.982 263.436 129.268 264.413 129.268C264.85 129.268 265.249 129.205 265.608 129.08C266.303 128.838 266.651 128.404 266.651 127.779C266.651 127.311 266.504 126.977 266.211 126.777C265.915 126.582 265.45 126.412 264.817 126.268L263.651 126.004C262.889 125.832 262.35 125.643 262.034 125.436C261.487 125.076 261.213 124.539 261.213 123.824C261.213 123.051 261.481 122.416 262.016 121.92C262.551 121.424 263.309 121.176 264.29 121.176C265.192 121.176 265.958 121.395 266.586 121.832C267.219 122.266 267.536 122.961 267.536 123.918H266.44C266.381 123.457 266.256 123.104 266.065 122.857C265.709 122.408 265.106 122.184 264.254 122.184C263.567 122.184 263.073 122.328 262.772 122.617C262.471 122.906 262.321 123.242 262.321 123.625C262.321 124.047 262.497 124.355 262.848 124.551C263.079 124.676 263.6 124.832 264.413 125.02L265.62 125.295C266.202 125.428 266.651 125.609 266.967 125.84C267.514 126.242 267.788 126.826 267.788 127.592C267.788 128.545 267.44 129.227 266.745 129.637C266.053 130.047 265.249 130.252 264.331 130.252C263.26 130.252 262.422 129.979 261.817 129.432C261.211 128.889 260.915 128.152 260.926 127.223H262.022Z" fill="#BABABA"/>
</svg>
