<svg width="300" height="200" viewBox="0 0 300 200" fill="none" xmlns="http://www.w3.org/2000/svg">
<path d="M35.2153 127.223C35.2427 127.711 35.3579 128.107 35.561 128.412C35.9478 128.982 36.6294 129.268 37.606 129.268C38.0435 129.268 38.4419 129.205 38.8013 129.08C39.4966 128.838 39.8442 128.404 39.8442 127.779C39.8442 127.311 39.6978 126.977 39.4048 126.777C39.1079 126.582 38.6431 126.412 38.0103 126.268L36.8442 126.004C36.0825 125.832 35.5435 125.643 35.2271 125.436C34.6802 125.076 34.4067 124.539 34.4067 123.824C34.4067 123.051 34.6743 122.416 35.2095 121.92C35.7446 121.424 36.5024 121.176 37.4829 121.176C38.3853 121.176 39.1509 121.395 39.7798 121.832C40.4126 122.266 40.729 122.961 40.729 123.918H39.6333C39.5747 123.457 39.4497 123.104 39.2583 122.857C38.9028 122.408 38.2993 122.184 37.4478 122.184C36.7603 122.184 36.2661 122.328 35.9653 122.617C35.6646 122.906 35.5142 123.242 35.5142 123.625C35.5142 124.047 35.6899 124.355 36.0415 124.551C36.272 124.676 36.7935 124.832 37.606 125.02L38.813 125.295C39.395 125.428 39.8442 125.609 40.1606 125.84C40.7075 126.242 40.981 126.826 40.981 127.592C40.981 128.545 40.6333 129.227 39.938 129.637C39.2466 130.047 38.4419 130.252 37.5239 130.252C36.4536 130.252 35.6157 129.979 35.0103 129.432C34.4048 128.889 34.1079 128.152 34.1196 127.223H35.2153ZM46.1724 121.158C47.6919 121.158 48.8169 121.646 49.5474 122.623C50.1177 123.385 50.4028 124.359 50.4028 125.547C50.4028 126.832 50.0767 127.9 49.4243 128.752C48.6587 129.752 47.5669 130.252 46.1489 130.252C44.8247 130.252 43.7837 129.814 43.0259 128.939C42.3501 128.096 42.0122 127.029 42.0122 125.74C42.0122 124.576 42.3013 123.58 42.8794 122.752C43.6216 121.689 44.7192 121.158 46.1724 121.158ZM46.2896 129.209C47.3169 129.209 48.0591 128.842 48.5161 128.107C48.9771 127.369 49.2075 126.521 49.2075 125.564C49.2075 124.553 48.9419 123.738 48.4106 123.121C47.8833 122.504 47.1606 122.195 46.2427 122.195C45.3521 122.195 44.6255 122.502 44.063 123.115C43.5005 123.725 43.2192 124.625 43.2192 125.816C43.2192 126.77 43.4595 127.574 43.9399 128.23C44.4243 128.883 45.2075 129.209 46.2896 129.209ZM51.7974 121.393H52.9634V128.975H57.3228V130H51.7974V121.393ZM62.895 126.473L61.5884 122.67L60.1997 126.473H62.895ZM60.979 121.393H62.2974L65.4204 130H64.1431L63.27 127.422H59.8657L58.9341 130H57.7388L60.979 121.393ZM66.481 121.393H67.8579L72.2056 128.365V121.393H73.313V130H72.0063L67.5942 123.033V130H66.481V121.393ZM79.5708 126.473L78.2642 122.67L76.8755 126.473H79.5708ZM77.6548 121.393H78.9731L82.0962 130H80.8188L79.9458 127.422H76.5415L75.6099 130H74.4146L77.6548 121.393ZM89.0747 125.031C89.5669 125.031 89.9497 124.963 90.2231 124.826C90.6528 124.611 90.8677 124.225 90.8677 123.666C90.8677 123.104 90.6392 122.725 90.1821 122.529C89.9243 122.42 89.5415 122.365 89.0337 122.365H86.9536V125.031H89.0747ZM89.4673 129.004C90.1821 129.004 90.6919 128.797 90.9966 128.383C91.188 128.121 91.2837 127.805 91.2837 127.434C91.2837 126.809 91.0044 126.383 90.4458 126.156C90.1489 126.035 89.7563 125.975 89.2681 125.975H86.9536V129.004H89.4673ZM85.811 121.393H89.5083C90.5161 121.393 91.2329 121.693 91.6587 122.295C91.9087 122.65 92.0337 123.061 92.0337 123.525C92.0337 124.068 91.8794 124.514 91.5708 124.861C91.4106 125.045 91.1802 125.213 90.8794 125.365C91.3208 125.533 91.6509 125.723 91.8696 125.934C92.2563 126.309 92.4497 126.826 92.4497 127.486C92.4497 128.041 92.2759 128.543 91.9282 128.992C91.4087 129.664 90.5825 130 89.4497 130H85.811V121.393ZM97.8462 125.336C98.3931 125.336 98.8247 125.227 99.1411 125.008C99.4614 124.789 99.6216 124.395 99.6216 123.824C99.6216 123.211 99.3989 122.793 98.9536 122.57C98.7153 122.453 98.397 122.395 97.9985 122.395H95.1509V125.336H97.8462ZM93.9849 121.393H97.9692C98.6255 121.393 99.1665 121.488 99.5923 121.68C100.401 122.047 100.805 122.725 100.805 123.713C100.805 124.229 100.698 124.65 100.483 124.979C100.272 125.307 99.9751 125.57 99.5923 125.77C99.9282 125.906 100.18 126.086 100.348 126.309C100.52 126.531 100.616 126.893 100.635 127.393L100.676 128.547C100.688 128.875 100.715 129.119 100.758 129.279C100.829 129.553 100.954 129.729 101.133 129.807V130H99.7036C99.6646 129.926 99.6333 129.83 99.6099 129.713C99.5864 129.596 99.5669 129.369 99.5513 129.033L99.481 127.598C99.4536 127.035 99.2446 126.658 98.854 126.467C98.6313 126.361 98.2817 126.309 97.8052 126.309H95.1509V130H93.9849V121.393ZM102.627 121.393H108.903V122.447H103.764V125.061H108.516V126.057H103.764V128.975H108.991V130H102.627V121.393ZM114.938 126.473L113.631 122.67L112.243 126.473H114.938ZM113.022 121.393H114.34L117.463 130H116.186L115.313 127.422H111.909L110.977 130H109.782L113.022 121.393ZM118.524 121.393H119.661V125.588L123.856 121.393H125.467L121.887 124.861L125.567 130H124.049L121.038 125.682L119.661 127V130H118.524V121.393ZM126.639 121.393H130.512C131.278 121.393 131.895 121.609 132.364 122.043C132.833 122.473 133.067 123.078 133.067 123.859C133.067 124.531 132.858 125.117 132.44 125.617C132.022 126.113 131.379 126.361 130.512 126.361H127.805V130H126.639V121.393ZM131.889 123.865C131.889 123.232 131.655 122.803 131.186 122.576C130.928 122.455 130.575 122.395 130.125 122.395H127.805V125.377H130.125C130.649 125.377 131.073 125.266 131.397 125.043C131.725 124.82 131.889 124.428 131.889 123.865ZM138.247 121.158C139.766 121.158 140.891 121.646 141.622 122.623C142.192 123.385 142.477 124.359 142.477 125.547C142.477 126.832 142.151 127.9 141.499 128.752C140.733 129.752 139.641 130.252 138.223 130.252C136.899 130.252 135.858 129.814 135.1 128.939C134.424 128.096 134.086 127.029 134.086 125.74C134.086 124.576 134.375 123.58 134.954 122.752C135.696 121.689 136.793 121.158 138.247 121.158ZM138.364 129.209C139.391 129.209 140.133 128.842 140.59 128.107C141.051 127.369 141.282 126.521 141.282 125.564C141.282 124.553 141.016 123.738 140.485 123.121C139.958 122.504 139.235 122.195 138.317 122.195C137.426 122.195 136.7 122.502 136.137 123.115C135.575 123.725 135.293 124.625 135.293 125.816C135.293 126.77 135.534 127.574 136.014 128.23C136.499 128.883 137.282 129.209 138.364 129.209ZM144.135 121.393H145.313V130H144.135V121.393ZM147.211 121.393H148.588L152.936 128.365V121.393H154.043V130H152.737L148.325 123.033V130H147.211V121.393ZM162.147 121.393V122.418H159.247V130H158.063V122.418H155.163V121.393H162.147ZM165.809 130C165.848 129.277 165.997 128.648 166.254 128.113C166.516 127.578 167.024 127.092 167.778 126.654L168.903 126.004C169.407 125.711 169.76 125.461 169.963 125.254C170.284 124.93 170.444 124.559 170.444 124.141C170.444 123.652 170.297 123.266 170.004 122.98C169.711 122.691 169.321 122.547 168.833 122.547C168.11 122.547 167.61 122.82 167.333 123.367C167.184 123.66 167.102 124.066 167.086 124.586H166.014C166.026 123.855 166.161 123.26 166.418 122.799C166.875 121.986 167.682 121.58 168.838 121.58C169.799 121.58 170.5 121.84 170.942 122.359C171.387 122.879 171.61 123.457 171.61 124.094C171.61 124.766 171.374 125.34 170.901 125.816C170.627 126.094 170.137 126.43 169.43 126.824L168.627 127.27C168.245 127.48 167.944 127.682 167.725 127.873C167.334 128.213 167.088 128.59 166.987 129.004H171.569V130H165.809ZM175.36 121.609C176.446 121.609 177.231 122.057 177.715 122.951C178.09 123.643 178.278 124.59 178.278 125.793C178.278 126.934 178.108 127.877 177.768 128.623C177.276 129.693 176.471 130.229 175.354 130.229C174.346 130.229 173.596 129.791 173.104 128.916C172.694 128.186 172.489 127.205 172.489 125.975C172.489 125.021 172.612 124.203 172.858 123.52C173.319 122.246 174.153 121.609 175.36 121.609ZM175.348 129.268C175.895 129.268 176.331 129.025 176.655 128.541C176.979 128.057 177.141 127.154 177.141 125.834C177.141 124.881 177.024 124.098 176.79 123.484C176.555 122.867 176.1 122.559 175.424 122.559C174.803 122.559 174.348 122.852 174.059 123.438C173.774 124.02 173.631 124.879 173.631 126.016C173.631 126.871 173.723 127.559 173.907 128.078C174.188 128.871 174.668 129.268 175.348 129.268ZM179.168 130C179.208 129.277 179.356 128.648 179.614 128.113C179.875 127.578 180.383 127.092 181.137 126.654L182.262 126.004C182.766 125.711 183.12 125.461 183.323 125.254C183.643 124.93 183.803 124.559 183.803 124.141C183.803 123.652 183.657 123.266 183.364 122.98C183.071 122.691 182.68 122.547 182.192 122.547C181.469 122.547 180.969 122.82 180.692 123.367C180.543 123.66 180.461 124.066 180.446 124.586H179.374C179.385 123.855 179.52 123.26 179.778 122.799C180.235 121.986 181.042 121.58 182.198 121.58C183.159 121.58 183.86 121.84 184.301 122.359C184.747 122.879 184.969 123.457 184.969 124.094C184.969 124.766 184.733 125.34 184.26 125.816C183.987 126.094 183.497 126.43 182.79 126.824L181.987 127.27C181.604 127.48 181.303 127.682 181.084 127.873C180.694 128.213 180.448 128.59 180.346 129.004H184.928V130H179.168ZM185.848 130C185.887 129.277 186.036 128.648 186.293 128.113C186.555 127.578 187.063 127.092 187.817 126.654L188.942 126.004C189.446 125.711 189.799 125.461 190.002 125.254C190.323 124.93 190.483 124.559 190.483 124.141C190.483 123.652 190.336 123.266 190.043 122.98C189.75 122.691 189.36 122.547 188.872 122.547C188.149 122.547 187.649 122.82 187.372 123.367C187.223 123.66 187.141 124.066 187.125 124.586H186.053C186.065 123.855 186.2 123.26 186.458 122.799C186.915 121.986 187.721 121.58 188.877 121.58C189.838 121.58 190.54 121.84 190.981 122.359C191.426 122.879 191.649 123.457 191.649 124.094C191.649 124.766 191.413 125.34 190.94 125.816C190.667 126.094 190.176 126.43 189.469 126.824L188.667 127.27C188.284 127.48 187.983 127.682 187.764 127.873C187.374 128.213 187.127 128.59 187.026 129.004H191.608V130H185.848ZM200.168 126.473L198.862 122.67L197.473 126.473H200.168ZM198.252 121.393H199.571L202.694 130H201.417L200.543 127.422H197.139L196.208 130H195.012L198.252 121.393ZM209.127 121.393V122.418H206.227V130H205.043V122.418H202.143V121.393H209.127ZM216.463 121.393V122.418H213.563V130H212.379V122.418H209.479V121.393H216.463ZM217.647 121.393H223.922V122.447H218.784V125.061H223.536V126.057H218.784V128.975H224.01V130H217.647V121.393ZM225.54 121.393H226.917L231.264 128.365V121.393H232.372V130H231.065L226.653 123.033V130H225.54V121.393ZM237.516 129.004C237.911 129.004 238.235 128.963 238.489 128.881C238.942 128.729 239.313 128.436 239.602 128.002C239.833 127.654 239.999 127.209 240.1 126.666C240.159 126.342 240.188 126.041 240.188 125.764C240.188 124.697 239.975 123.869 239.549 123.279C239.127 122.689 238.446 122.395 237.504 122.395H235.436V129.004H237.516ZM234.264 121.393H237.75C238.934 121.393 239.852 121.812 240.504 122.652C241.086 123.41 241.377 124.381 241.377 125.564C241.377 126.479 241.206 127.305 240.862 128.043C240.256 129.348 239.215 130 237.739 130H234.264V121.393ZM242.995 121.393H249.27V122.447H244.131V125.061H248.883V126.057H244.131V128.975H249.358V130H242.995V121.393ZM250.999 121.393H257.274V122.447H252.135V125.061H256.887V126.057H252.135V128.975H257.362V130H250.999V121.393ZM259.653 127.223C259.68 127.711 259.795 128.107 259.999 128.412C260.385 128.982 261.067 129.268 262.043 129.268C262.481 129.268 262.879 129.205 263.239 129.08C263.934 128.838 264.282 128.404 264.282 127.779C264.282 127.311 264.135 126.977 263.842 126.777C263.545 126.582 263.081 126.412 262.448 126.268L261.282 126.004C260.52 125.832 259.981 125.643 259.665 125.436C259.118 125.076 258.844 124.539 258.844 123.824C258.844 123.051 259.112 122.416 259.647 121.92C260.182 121.424 260.94 121.176 261.92 121.176C262.823 121.176 263.588 121.395 264.217 121.832C264.85 122.266 265.167 122.961 265.167 123.918H264.071C264.012 123.457 263.887 123.104 263.696 122.857C263.34 122.408 262.737 122.184 261.885 122.184C261.198 122.184 260.704 122.328 260.403 122.617C260.102 122.906 259.952 123.242 259.952 123.625C259.952 124.047 260.127 124.355 260.479 124.551C260.709 124.676 261.231 124.832 262.043 125.02L263.25 125.295C263.833 125.428 264.282 125.609 264.598 125.84C265.145 126.242 265.418 126.826 265.418 127.592C265.418 128.545 265.071 129.227 264.375 129.637C263.684 130.047 262.879 130.252 261.961 130.252C260.891 130.252 260.053 129.979 259.448 129.432C258.842 128.889 258.545 128.152 258.557 127.223H259.653Z" fill="#BABABA"/>
<path d="M106.068 100.8C102.595 100.8 100.073 99.8496 98.5005 97.9492C96.9419 96.0352 96.1626 93.7109 96.1626 90.9766H100.018C100.182 92.877 100.538 94.2578 101.084 95.1191C102.042 96.6641 103.771 97.4365 106.273 97.4365C108.214 97.4365 109.773 96.917 110.949 95.8779C112.125 94.8389 112.712 93.499 112.712 91.8584C112.712 89.835 112.09 88.4199 110.846 87.6133C109.616 86.8066 107.9 86.4033 105.699 86.4033C105.453 86.4033 105.2 86.4102 104.94 86.4238C104.694 86.4238 104.441 86.4307 104.181 86.4443V83.1836C104.564 83.2246 104.885 83.252 105.145 83.2656C105.405 83.2793 105.685 83.2861 105.986 83.2861C107.367 83.2861 108.501 83.0674 109.39 82.6299C110.949 81.8643 111.728 80.4971 111.728 78.5283C111.728 77.0654 111.208 75.9375 110.169 75.1445C109.13 74.3516 107.92 73.9551 106.54 73.9551C104.079 73.9551 102.376 74.7754 101.433 76.416C100.914 77.3184 100.62 78.6035 100.551 80.2715H96.9009C96.9009 78.084 97.3384 76.2246 98.2134 74.6934C99.7173 71.959 102.363 70.5918 106.15 70.5918C109.144 70.5918 111.461 71.2617 113.102 72.6016C114.743 73.9277 115.563 75.8555 115.563 78.3848C115.563 80.1895 115.078 81.6523 114.107 82.7734C113.505 83.4707 112.726 84.0176 111.769 84.4141C113.314 84.8379 114.517 85.6582 115.378 86.875C116.253 88.0781 116.691 89.5547 116.691 91.3047C116.691 94.1074 115.768 96.3906 113.922 98.1543C112.077 99.918 109.458 100.8 106.068 100.8ZM123.023 104.286C123.966 104.122 124.629 103.459 125.012 102.297C125.217 101.682 125.32 101.087 125.32 100.513C125.32 100.417 125.313 100.328 125.299 100.246C125.299 100.178 125.286 100.096 125.258 100H123.023V95.5293H127.412V99.6719C127.412 101.299 127.083 102.728 126.427 103.958C125.771 105.188 124.636 105.947 123.023 106.234V104.286ZM143.649 82.9375C145.276 82.9375 146.547 82.4863 147.463 81.584C148.379 80.668 148.837 79.5811 148.837 78.3232C148.837 77.2295 148.4 76.2246 147.525 75.3086C146.65 74.3926 145.317 73.9346 143.526 73.9346C141.749 73.9346 140.463 74.3926 139.67 75.3086C138.877 76.2246 138.481 77.2979 138.481 78.5283C138.481 79.9092 138.994 80.9893 140.019 81.7686C141.044 82.5479 142.254 82.9375 143.649 82.9375ZM143.875 97.4775C145.583 97.4775 146.999 97.0195 148.12 96.1035C149.254 95.1738 149.822 93.793 149.822 91.9609C149.822 90.0605 149.241 88.6182 148.079 87.6338C146.917 86.6494 145.426 86.1572 143.608 86.1572C141.844 86.1572 140.402 86.6631 139.281 87.6748C138.173 88.6729 137.62 90.0605 137.62 91.8379C137.62 93.3691 138.125 94.6953 139.137 95.8164C140.163 96.9238 141.742 97.4775 143.875 97.4775ZM138.625 84.3525C137.599 83.915 136.799 83.4023 136.225 82.8145C135.145 81.7207 134.605 80.2988 134.605 78.5488C134.605 76.3613 135.398 74.4814 136.984 72.9092C138.57 71.3369 140.819 70.5508 143.731 70.5508C146.547 70.5508 148.755 71.2959 150.355 72.7861C151.955 74.2627 152.754 75.9922 152.754 77.9746C152.754 79.8066 152.29 81.29 151.36 82.4248C150.84 83.0674 150.034 83.6963 148.94 84.3115C150.157 84.8721 151.114 85.5146 151.811 86.2393C153.11 87.6064 153.759 89.3838 153.759 91.5713C153.759 94.1553 152.891 96.3496 151.155 98.1543C149.418 99.9453 146.964 100.841 143.792 100.841C140.935 100.841 138.515 100.068 136.533 98.5234C134.564 96.9648 133.58 94.709 133.58 91.7559C133.58 90.0195 134.003 88.5225 134.851 87.2646C135.699 85.9932 136.957 85.0225 138.625 84.3525ZM167.966 70.6328C171.767 70.6328 174.515 72.1982 176.21 75.3291C177.523 77.749 178.179 81.0645 178.179 85.2754C178.179 89.2676 177.584 92.5693 176.395 95.1807C174.672 98.9268 171.856 100.8 167.946 100.8C164.418 100.8 161.793 99.2686 160.071 96.2061C158.635 93.6494 157.917 90.2178 157.917 85.9111C157.917 82.5752 158.348 79.7109 159.209 77.3184C160.823 72.8613 163.742 70.6328 167.966 70.6328ZM167.925 97.4365C169.839 97.4365 171.364 96.5889 172.499 94.8936C173.633 93.1982 174.201 90.04 174.201 85.4189C174.201 82.083 173.791 79.3418 172.97 77.1953C172.15 75.0352 170.557 73.9551 168.192 73.9551C166.018 73.9551 164.425 74.9805 163.414 77.0312C162.416 79.0684 161.917 82.0762 161.917 86.0547C161.917 89.0488 162.238 91.4551 162.88 93.2734C163.865 96.0488 165.546 97.4365 167.925 97.4365ZM192.345 70.6328C196.146 70.6328 198.894 72.1982 200.589 75.3291C201.902 77.749 202.558 81.0645 202.558 85.2754C202.558 89.2676 201.963 92.5693 200.774 95.1807C199.051 98.9268 196.235 100.8 192.325 100.8C188.797 100.8 186.172 99.2686 184.45 96.2061C183.014 93.6494 182.296 90.2178 182.296 85.9111C182.296 82.5752 182.727 79.7109 183.588 77.3184C185.202 72.8613 188.121 70.6328 192.345 70.6328ZM192.304 97.4365C194.218 97.4365 195.743 96.5889 196.877 94.8936C198.012 93.1982 198.58 90.04 198.58 85.4189C198.58 82.083 198.169 79.3418 197.349 77.1953C196.529 75.0352 194.936 73.9551 192.571 73.9551C190.397 73.9551 188.804 74.9805 187.792 77.0312C186.794 79.0684 186.295 82.0762 186.295 86.0547C186.295 89.0488 186.617 91.4551 187.259 93.2734C188.244 96.0488 189.925 97.4365 192.304 97.4365Z" fill="#FFEB3B"/>
</svg>
