<svg width="268" height="169" viewBox="0 0 268 169" fill="none" xmlns="http://www.w3.org/2000/svg">
<path d="M41.9028 107.004C42.2974 107.004 42.6216 106.963 42.8755 106.881C43.3286 106.729 43.6997 106.436 43.9888 106.002C44.2192 105.654 44.3853 105.209 44.4868 104.666C44.5454 104.342 44.5747 104.041 44.5747 103.764C44.5747 102.697 44.3618 101.869 43.936 101.279C43.5142 100.689 42.8325 100.395 41.8911 100.395H39.8228V107.004H41.9028ZM38.6509 99.3926H42.1372C43.3208 99.3926 44.2388 99.8125 44.8911 100.652C45.4731 101.41 45.7642 102.381 45.7642 103.564C45.7642 104.479 45.5923 105.305 45.2485 106.043C44.6431 107.348 43.6021 108 42.1255 108H38.6509V99.3926ZM47.3813 99.3926H53.6567V100.447H48.5181V103.061H53.27V104.057H48.5181V106.975H53.7446V108H47.3813V99.3926ZM55.9536 99.3926L58.4263 106.723L60.8696 99.3926H62.1763L59.0356 108H57.7993L54.6646 99.3926H55.9536ZM63.3892 99.3926H69.6646V100.447H64.5259V103.061H69.2778V104.057H64.5259V106.975H69.7524V108H63.3892V99.3926ZM71.2817 99.3926H72.4478V106.975H76.8071V108H71.2817V99.3926ZM81.6763 99.1582C83.1958 99.1582 84.3208 99.6465 85.0513 100.623C85.6216 101.385 85.9067 102.359 85.9067 103.547C85.9067 104.832 85.5806 105.9 84.9282 106.752C84.1626 107.752 83.0708 108.252 81.6528 108.252C80.3286 108.252 79.2876 107.814 78.5298 106.939C77.854 106.096 77.5161 105.029 77.5161 103.74C77.5161 102.576 77.8052 101.58 78.3833 100.752C79.1255 99.6895 80.2231 99.1582 81.6763 99.1582ZM81.7935 107.209C82.8208 107.209 83.563 106.842 84.02 106.107C84.481 105.369 84.7114 104.521 84.7114 103.564C84.7114 102.553 84.4458 101.738 83.9146 101.121C83.3872 100.504 82.6646 100.195 81.7466 100.195C80.856 100.195 80.1294 100.502 79.5669 101.115C79.0044 101.725 78.7231 102.625 78.7231 103.816C78.7231 104.77 78.9634 105.574 79.4438 106.23C79.9282 106.883 80.7114 107.209 81.7935 107.209ZM87.4126 99.3926H91.2856C92.0513 99.3926 92.6685 99.6094 93.1372 100.043C93.606 100.473 93.8403 101.078 93.8403 101.859C93.8403 102.531 93.6313 103.117 93.2134 103.617C92.7954 104.113 92.1528 104.361 91.2856 104.361H88.5786V108H87.4126V99.3926ZM92.6626 101.865C92.6626 101.232 92.4282 100.803 91.9595 100.576C91.7017 100.455 91.3481 100.395 90.8989 100.395H88.5786V103.377H90.8989C91.4224 103.377 91.8462 103.266 92.1704 103.043C92.4985 102.82 92.6626 102.428 92.6626 101.865ZM95.4165 99.3926H101.692V100.447H96.5532V103.061H101.305V104.057H96.5532V106.975H101.78V108H95.4165V99.3926ZM107.311 103.336C107.858 103.336 108.29 103.227 108.606 103.008C108.926 102.789 109.086 102.395 109.086 101.824C109.086 101.211 108.864 100.793 108.418 100.57C108.18 100.453 107.862 100.395 107.463 100.395H104.616V103.336H107.311ZM103.45 99.3926H107.434C108.09 99.3926 108.631 99.4883 109.057 99.6797C109.866 100.047 110.27 100.725 110.27 101.713C110.27 102.229 110.163 102.65 109.948 102.979C109.737 103.307 109.44 103.57 109.057 103.77C109.393 103.906 109.645 104.086 109.813 104.309C109.985 104.531 110.081 104.893 110.1 105.393L110.141 106.547C110.153 106.875 110.18 107.119 110.223 107.279C110.293 107.553 110.418 107.729 110.598 107.807V108H109.168C109.129 107.926 109.098 107.83 109.075 107.713C109.051 107.596 109.032 107.369 109.016 107.033L108.946 105.598C108.918 105.035 108.709 104.658 108.319 104.467C108.096 104.361 107.747 104.309 107.27 104.309H104.616V108H103.45V99.3926ZM112.743 105.223C112.77 105.711 112.885 106.107 113.088 106.412C113.475 106.982 114.157 107.268 115.133 107.268C115.571 107.268 115.969 107.205 116.329 107.08C117.024 106.838 117.372 106.404 117.372 105.779C117.372 105.311 117.225 104.977 116.932 104.777C116.635 104.582 116.17 104.412 115.538 104.268L114.372 104.004C113.61 103.832 113.071 103.643 112.754 103.436C112.208 103.076 111.934 102.539 111.934 101.824C111.934 101.051 112.202 100.416 112.737 99.9199C113.272 99.4238 114.03 99.1758 115.01 99.1758C115.913 99.1758 116.678 99.3945 117.307 99.832C117.94 100.266 118.256 100.961 118.256 101.918H117.161C117.102 101.457 116.977 101.104 116.786 100.857C116.43 100.408 115.827 100.184 114.975 100.184C114.288 100.184 113.793 100.328 113.493 100.617C113.192 100.906 113.042 101.242 113.042 101.625C113.042 102.047 113.217 102.355 113.569 102.551C113.799 102.676 114.321 102.832 115.133 103.02L116.34 103.295C116.922 103.428 117.372 103.609 117.688 103.84C118.235 104.242 118.508 104.826 118.508 105.592C118.508 106.545 118.161 107.227 117.465 107.637C116.774 108.047 115.969 108.252 115.051 108.252C113.981 108.252 113.143 107.979 112.538 107.432C111.932 106.889 111.635 106.152 111.647 105.223H112.743ZM126.559 103.031C127.051 103.031 127.434 102.963 127.708 102.826C128.137 102.611 128.352 102.225 128.352 101.666C128.352 101.104 128.124 100.725 127.667 100.529C127.409 100.42 127.026 100.365 126.518 100.365H124.438V103.031H126.559ZM126.952 107.004C127.667 107.004 128.176 106.797 128.481 106.383C128.672 106.121 128.768 105.805 128.768 105.434C128.768 104.809 128.489 104.383 127.93 104.156C127.633 104.035 127.241 103.975 126.752 103.975H124.438V107.004H126.952ZM123.295 99.3926H126.993C128 99.3926 128.717 99.6934 129.143 100.295C129.393 100.65 129.518 101.061 129.518 101.525C129.518 102.068 129.364 102.514 129.055 102.861C128.895 103.045 128.665 103.213 128.364 103.365C128.805 103.533 129.135 103.723 129.354 103.934C129.741 104.309 129.934 104.826 129.934 105.486C129.934 106.041 129.76 106.543 129.413 106.992C128.893 107.664 128.067 108 126.934 108H123.295V99.3926ZM132.594 99.3926V104.713C132.594 105.338 132.711 105.857 132.946 106.271C133.293 106.896 133.879 107.209 134.704 107.209C135.692 107.209 136.364 106.871 136.719 106.195C136.911 105.828 137.006 105.334 137.006 104.713V99.3926H138.19V104.227C138.19 105.285 138.047 106.1 137.762 106.67C137.239 107.709 136.25 108.229 134.797 108.229C133.344 108.229 132.358 107.709 131.838 106.67C131.553 106.1 131.411 105.285 131.411 104.227V99.3926H132.594ZM140.264 99.3926H141.442V108H140.264V99.3926ZM143.34 99.3926H144.506V106.975H148.866V108H143.34V99.3926ZM153.325 107.004C153.719 107.004 154.043 106.963 154.297 106.881C154.75 106.729 155.122 106.436 155.411 106.002C155.641 105.654 155.807 105.209 155.909 104.666C155.967 104.342 155.997 104.041 155.997 103.764C155.997 102.697 155.784 101.869 155.358 101.279C154.936 100.689 154.254 100.395 153.313 100.395H151.245V107.004H153.325ZM150.073 99.3926H153.559C154.743 99.3926 155.661 99.8125 156.313 100.652C156.895 101.41 157.186 102.381 157.186 103.564C157.186 104.479 157.014 105.305 156.67 106.043C156.065 107.348 155.024 108 153.547 108H150.073V99.3926ZM158.956 99.3926H160.133V108H158.956V99.3926ZM162.032 99.3926H163.409L167.756 106.365V99.3926H168.864V108H167.557L163.145 101.033V108H162.032V99.3926ZM174.424 99.1699C175.233 99.1699 175.932 99.3262 176.522 99.6387C177.377 100.088 177.901 100.875 178.092 102H176.938C176.797 101.371 176.506 100.914 176.065 100.629C175.624 100.34 175.067 100.195 174.395 100.195C173.598 100.195 172.926 100.494 172.379 101.092C171.836 101.689 171.565 102.58 171.565 103.764C171.565 104.787 171.79 105.621 172.239 106.266C172.688 106.906 173.42 107.227 174.436 107.227C175.213 107.227 175.856 107.002 176.364 106.553C176.875 106.1 177.137 105.369 177.149 104.361H174.454V103.395H178.233V108H177.483L177.202 106.893C176.807 107.326 176.458 107.627 176.153 107.795C175.641 108.084 174.991 108.229 174.202 108.229C173.182 108.229 172.305 107.898 171.571 107.238C170.77 106.41 170.37 105.273 170.37 103.828C170.37 102.387 170.76 101.24 171.542 100.389C172.284 99.5762 173.245 99.1699 174.424 99.1699ZM186.688 107.004C187.083 107.004 187.407 106.963 187.661 106.881C188.114 106.729 188.485 106.436 188.774 106.002C189.004 105.654 189.17 105.209 189.272 104.666C189.331 104.342 189.36 104.041 189.36 103.764C189.36 102.697 189.147 101.869 188.721 101.279C188.299 100.689 187.618 100.395 186.676 100.395H184.608V107.004H186.688ZM183.436 99.3926H186.922C188.106 99.3926 189.024 99.8125 189.676 100.652C190.258 101.41 190.549 102.381 190.549 103.564C190.549 104.479 190.377 105.305 190.034 106.043C189.428 107.348 188.387 108 186.911 108H183.436V99.3926ZM193.321 99.3926V104.713C193.321 105.338 193.438 105.857 193.672 106.271C194.02 106.896 194.606 107.209 195.43 107.209C196.418 107.209 197.09 106.871 197.446 106.195C197.637 105.828 197.733 105.334 197.733 104.713V99.3926H198.917V104.227C198.917 105.285 198.774 106.1 198.489 106.67C197.965 107.709 196.977 108.229 195.524 108.229C194.071 108.229 193.084 107.709 192.565 106.67C192.28 106.1 192.137 105.285 192.137 104.227V99.3926H193.321ZM204.729 103.336C205.276 103.336 205.708 103.227 206.024 103.008C206.344 102.789 206.504 102.395 206.504 101.824C206.504 101.211 206.282 100.793 205.836 100.57C205.598 100.453 205.28 100.395 204.881 100.395H202.034V103.336H204.729ZM200.868 99.3926H204.852C205.508 99.3926 206.049 99.4883 206.475 99.6797C207.284 100.047 207.688 100.725 207.688 101.713C207.688 102.229 207.581 102.65 207.366 102.979C207.155 103.307 206.858 103.57 206.475 103.77C206.811 103.906 207.063 104.086 207.231 104.309C207.403 104.531 207.499 104.893 207.518 105.393L207.559 106.547C207.571 106.875 207.598 107.119 207.641 107.279C207.711 107.553 207.836 107.729 208.016 107.807V108H206.586C206.547 107.926 206.516 107.83 206.493 107.713C206.469 107.596 206.45 107.369 206.434 107.033L206.364 105.598C206.336 105.035 206.127 104.658 205.737 104.467C205.514 104.361 205.165 104.309 204.688 104.309H202.034V108H200.868V99.3926ZM209.663 99.3926H210.84V108H209.663V99.3926ZM212.739 99.3926H214.116L218.463 106.365V99.3926H219.571V108H218.264L213.852 101.033V108H212.739V99.3926ZM225.131 99.1699C225.94 99.1699 226.639 99.3262 227.229 99.6387C228.084 100.088 228.608 100.875 228.799 102H227.645C227.504 101.371 227.213 100.914 226.772 100.629C226.331 100.34 225.774 100.195 225.102 100.195C224.305 100.195 223.633 100.494 223.086 101.092C222.543 101.689 222.272 102.58 222.272 103.764C222.272 104.787 222.497 105.621 222.946 106.266C223.395 106.906 224.127 107.227 225.143 107.227C225.92 107.227 226.563 107.002 227.071 106.553C227.583 106.1 227.844 105.369 227.856 104.361H225.161V103.395H228.94V108H228.19L227.909 106.893C227.514 107.326 227.165 107.627 226.86 107.795C226.348 108.084 225.698 108.229 224.909 108.229C223.889 108.229 223.012 107.898 222.278 107.238C221.477 106.41 221.077 105.273 221.077 103.828C221.077 102.387 221.467 101.24 222.249 100.389C222.991 99.5762 223.952 99.1699 225.131 99.1699ZM68.4985 120.223C68.5259 120.711 68.6411 121.107 68.8442 121.412C69.231 121.982 69.9126 122.268 70.8892 122.268C71.3267 122.268 71.7251 122.205 72.0845 122.08C72.7798 121.838 73.1274 121.404 73.1274 120.779C73.1274 120.311 72.981 119.977 72.688 119.777C72.3911 119.582 71.9263 119.412 71.2935 119.268L70.1274 119.004C69.3657 118.832 68.8267 118.643 68.5103 118.436C67.9634 118.076 67.6899 117.539 67.6899 116.824C67.6899 116.051 67.9575 115.416 68.4927 114.92C69.0278 114.424 69.7856 114.176 70.7661 114.176C71.6685 114.176 72.4341 114.395 73.063 114.832C73.6958 115.266 74.0122 115.961 74.0122 116.918H72.9165C72.8579 116.457 72.7329 116.104 72.5415 115.857C72.186 115.408 71.5825 115.184 70.731 115.184C70.0435 115.184 69.5493 115.328 69.2485 115.617C68.9478 115.906 68.7974 116.242 68.7974 116.625C68.7974 117.047 68.9731 117.355 69.3247 117.551C69.5552 117.676 70.0767 117.832 70.8892 118.02L72.0962 118.295C72.6782 118.428 73.1274 118.609 73.4438 118.84C73.9907 119.242 74.2642 119.826 74.2642 120.592C74.2642 121.545 73.9165 122.227 73.2212 122.637C72.5298 123.047 71.7251 123.252 70.8071 123.252C69.7368 123.252 68.8989 122.979 68.2935 122.432C67.688 121.889 67.3911 121.152 67.4028 120.223H68.4985ZM79.4556 114.158C80.9751 114.158 82.1001 114.646 82.8306 115.623C83.4009 116.385 83.686 117.359 83.686 118.547C83.686 119.832 83.3599 120.9 82.7075 121.752C81.9419 122.752 80.8501 123.252 79.4321 123.252C78.1079 123.252 77.0669 122.814 76.3091 121.939C75.6333 121.096 75.2954 120.029 75.2954 118.74C75.2954 117.576 75.5845 116.58 76.1626 115.752C76.9048 114.689 78.0024 114.158 79.4556 114.158ZM79.5728 122.209C80.6001 122.209 81.3423 121.842 81.7993 121.107C82.2603 120.369 82.4907 119.521 82.4907 118.564C82.4907 117.553 82.2251 116.738 81.6938 116.121C81.1665 115.504 80.4438 115.195 79.5259 115.195C78.6353 115.195 77.9087 115.502 77.3462 116.115C76.7837 116.725 76.5024 117.625 76.5024 118.816C76.5024 119.77 76.7427 120.574 77.2231 121.23C77.7075 121.883 78.4907 122.209 79.5728 122.209ZM85.0806 114.393H86.2466V121.975H90.606V123H85.0806V114.393ZM96.1782 119.473L94.8716 115.67L93.4829 119.473H96.1782ZM94.2622 114.393H95.5806L98.7036 123H97.4263L96.5532 120.422H93.1489L92.2173 123H91.022L94.2622 114.393ZM99.7642 114.393H101.141L105.489 121.365V114.393H106.596V123H105.29L100.877 116.033V123H99.7642V114.393ZM112.854 119.473L111.547 115.67L110.159 119.473H112.854ZM110.938 114.393H112.256L115.379 123H114.102L113.229 120.422H109.825L108.893 123H107.698L110.938 114.393ZM119.153 114.393H120.331V117.949H124.807V114.393H125.985V123H124.807V118.975H120.331V123H119.153V114.393ZM132.213 119.473L130.907 115.67L129.518 119.473H132.213ZM130.297 114.393H131.616L134.739 123H133.461L132.588 120.422H129.184L128.252 123H127.057L130.297 114.393ZM139.426 114.158C140.516 114.158 141.362 114.445 141.963 115.02C142.565 115.594 142.899 116.246 142.965 116.977H141.829C141.7 116.422 141.442 115.982 141.055 115.658C140.672 115.334 140.133 115.172 139.438 115.172C138.59 115.172 137.905 115.471 137.381 116.068C136.862 116.662 136.602 117.574 136.602 118.805C136.602 119.812 136.836 120.631 137.305 121.26C137.778 121.885 138.481 122.197 139.415 122.197C140.274 122.197 140.928 121.867 141.377 121.207C141.616 120.859 141.793 120.402 141.911 119.836H143.047C142.946 120.742 142.61 121.502 142.04 122.115C141.356 122.854 140.434 123.223 139.274 123.223C138.274 123.223 137.434 122.92 136.754 122.314C135.86 121.514 135.413 120.277 135.413 118.605C135.413 117.336 135.749 116.295 136.42 115.482C137.147 114.6 138.149 114.158 139.426 114.158ZM144.471 114.393H145.608V118.588L149.803 114.393H151.415L147.834 117.861L151.514 123H149.997L146.985 118.682L145.608 120V123H144.471V114.393ZM156.893 119.473L155.586 115.67L154.198 119.473H156.893ZM154.977 114.393H156.295L159.418 123H158.141L157.268 120.422H153.864L152.932 123H151.737L154.977 114.393ZM165.852 114.393V115.418H162.952V123H161.768V115.418H158.868V114.393H165.852ZM166.954 114.393H168.131V117.949H172.608V114.393H173.786V123H172.608V118.975H168.131V123H166.954V114.393ZM179.311 114.158C180.831 114.158 181.956 114.646 182.686 115.623C183.256 116.385 183.542 117.359 183.542 118.547C183.542 119.832 183.215 120.9 182.563 121.752C181.797 122.752 180.706 123.252 179.288 123.252C177.963 123.252 176.922 122.814 176.165 121.939C175.489 121.096 175.151 120.029 175.151 118.74C175.151 117.576 175.44 116.58 176.018 115.752C176.76 114.689 177.858 114.158 179.311 114.158ZM179.428 122.209C180.456 122.209 181.198 121.842 181.655 121.107C182.116 120.369 182.346 119.521 182.346 118.564C182.346 117.553 182.081 116.738 181.549 116.121C181.022 115.504 180.299 115.195 179.381 115.195C178.491 115.195 177.764 115.502 177.202 116.115C176.639 116.725 176.358 117.625 176.358 118.816C176.358 119.77 176.598 120.574 177.079 121.23C177.563 121.883 178.346 122.209 179.428 122.209ZM184.936 114.393H186.313L190.661 121.365V114.393H191.768V123H190.461L186.049 116.033V123H184.936V114.393ZM194.37 120.223C194.397 120.711 194.512 121.107 194.715 121.412C195.102 121.982 195.784 122.268 196.76 122.268C197.198 122.268 197.596 122.205 197.956 122.08C198.651 121.838 198.999 121.404 198.999 120.779C198.999 120.311 198.852 119.977 198.559 119.777C198.262 119.582 197.797 119.412 197.165 119.268L195.999 119.004C195.237 118.832 194.698 118.643 194.381 118.436C193.834 118.076 193.561 117.539 193.561 116.824C193.561 116.051 193.829 115.416 194.364 114.92C194.899 114.424 195.657 114.176 196.637 114.176C197.54 114.176 198.305 114.395 198.934 114.832C199.567 115.266 199.883 115.961 199.883 116.918H198.788C198.729 116.457 198.604 116.104 198.413 115.857C198.057 115.408 197.454 115.184 196.602 115.184C195.915 115.184 195.42 115.328 195.12 115.617C194.819 115.906 194.668 116.242 194.668 116.625C194.668 117.047 194.844 117.355 195.196 117.551C195.426 117.676 195.948 117.832 196.76 118.02L197.967 118.295C198.549 118.428 198.999 118.609 199.315 118.84C199.862 119.242 200.135 119.826 200.135 120.592C200.135 121.545 199.788 122.227 199.092 122.637C198.401 123.047 197.596 123.252 196.678 123.252C195.608 123.252 194.77 122.979 194.165 122.432C193.559 121.889 193.262 121.152 193.274 120.223H194.37Z" fill="#BABABA"/>
<path d="M80.8521 67.6025V54.293L71.439 67.6025H80.8521ZM80.9136 78V70.8223H68.0347V67.2129L81.4878 48.5508H84.605V67.6025H88.9321V70.8223H84.605V78H80.9136ZM102.77 60.9375C104.397 60.9375 105.668 60.4863 106.584 59.584C107.5 58.668 107.958 57.5811 107.958 56.3232C107.958 55.2295 107.521 54.2246 106.646 53.3086C105.771 52.3926 104.438 51.9346 102.647 51.9346C100.87 51.9346 99.5845 52.3926 98.7915 53.3086C97.9985 54.2246 97.6021 55.2979 97.6021 56.5283C97.6021 57.9092 98.1147 58.9893 99.1401 59.7686C100.166 60.5479 101.375 60.9375 102.77 60.9375ZM102.996 75.4775C104.705 75.4775 106.12 75.0195 107.241 74.1035C108.375 73.1738 108.943 71.793 108.943 69.9609C108.943 68.0605 108.362 66.6182 107.2 65.6338C106.038 64.6494 104.547 64.1572 102.729 64.1572C100.965 64.1572 99.5229 64.6631 98.4019 65.6748C97.2944 66.6729 96.7407 68.0605 96.7407 69.8379C96.7407 71.3691 97.2466 72.6953 98.2583 73.8164C99.2837 74.9238 100.863 75.4775 102.996 75.4775ZM97.7456 62.3525C96.7202 61.915 95.9204 61.4023 95.3462 60.8145C94.2661 59.7207 93.7261 58.2988 93.7261 56.5488C93.7261 54.3613 94.519 52.4814 96.105 50.9092C97.6909 49.3369 99.9399 48.5508 102.852 48.5508C105.668 48.5508 107.876 49.2959 109.476 50.7861C111.076 52.2627 111.875 53.9922 111.875 55.9746C111.875 57.8066 111.411 59.29 110.481 60.4248C109.961 61.0674 109.155 61.6963 108.061 62.3115C109.278 62.8721 110.235 63.5146 110.932 64.2393C112.231 65.6064 112.88 67.3838 112.88 69.5713C112.88 72.1553 112.012 74.3496 110.276 76.1543C108.54 77.9453 106.085 78.8408 102.914 78.8408C100.056 78.8408 97.6362 78.0684 95.6538 76.5234C93.6851 74.9648 92.7007 72.709 92.7007 69.7559C92.7007 68.0195 93.1245 66.5225 93.9722 65.2646C94.8198 63.9932 96.0776 63.0225 97.7456 62.3525ZM119.212 82.2861C120.156 82.1221 120.819 81.459 121.202 80.2969C121.407 79.6816 121.509 79.0869 121.509 78.5127C121.509 78.417 121.502 78.3281 121.489 78.2461C121.489 78.1777 121.475 78.0957 121.448 78H119.212V73.5293H123.601V77.6719C123.601 79.2988 123.273 80.7275 122.617 81.958C121.96 83.1885 120.826 83.9473 119.212 84.2344V82.2861ZM139.777 48.6328C143.578 48.6328 146.326 50.1982 148.021 53.3291C149.333 55.749 149.99 59.0645 149.99 63.2754C149.99 67.2676 149.395 70.5693 148.206 73.1807C146.483 76.9268 143.667 78.7998 139.756 78.7998C136.229 78.7998 133.604 77.2686 131.881 74.2061C130.446 71.6494 129.728 68.2178 129.728 63.9111C129.728 60.5752 130.159 57.7109 131.02 55.3184C132.633 50.8613 135.552 48.6328 139.777 48.6328ZM139.736 75.4365C141.65 75.4365 143.174 74.5889 144.309 72.8936C145.444 71.1982 146.011 68.04 146.011 63.4189C146.011 60.083 145.601 57.3418 144.781 55.1953C143.96 53.0352 142.368 51.9551 140.002 51.9551C137.829 51.9551 136.236 52.9805 135.224 55.0312C134.226 57.0684 133.727 60.0762 133.727 64.0547C133.727 67.0488 134.048 69.4551 134.691 71.2734C135.675 74.0488 137.357 75.4365 139.736 75.4365ZM164.156 48.6328C167.957 48.6328 170.705 50.1982 172.4 53.3291C173.712 55.749 174.369 59.0645 174.369 63.2754C174.369 67.2676 173.774 70.5693 172.584 73.1807C170.862 76.9268 168.045 78.7998 164.135 78.7998C160.608 78.7998 157.983 77.2686 156.26 74.2061C154.825 71.6494 154.107 68.2178 154.107 63.9111C154.107 60.5752 154.538 57.7109 155.399 55.3184C157.012 50.8613 159.931 48.6328 164.156 48.6328ZM164.115 75.4365C166.029 75.4365 167.553 74.5889 168.688 72.8936C169.823 71.1982 170.39 68.04 170.39 63.4189C170.39 60.083 169.98 57.3418 169.16 55.1953C168.339 53.0352 166.747 51.9551 164.381 51.9551C162.208 51.9551 160.615 52.9805 159.603 55.0312C158.605 57.0684 158.106 60.0762 158.106 64.0547C158.106 67.0488 158.427 69.4551 159.07 71.2734C160.054 74.0488 161.736 75.4365 164.115 75.4365ZM188.535 48.6328C192.335 48.6328 195.083 50.1982 196.779 53.3291C198.091 55.749 198.748 59.0645 198.748 63.2754C198.748 67.2676 198.153 70.5693 196.963 73.1807C195.241 76.9268 192.424 78.7998 188.514 78.7998C184.987 78.7998 182.362 77.2686 180.639 74.2061C179.204 71.6494 178.486 68.2178 178.486 63.9111C178.486 60.5752 178.917 57.7109 179.778 55.3184C181.391 50.8613 184.31 48.6328 188.535 48.6328ZM188.494 75.4365C190.408 75.4365 191.932 74.5889 193.067 72.8936C194.202 71.1982 194.769 68.04 194.769 63.4189C194.769 60.083 194.359 57.3418 193.539 55.1953C192.718 53.0352 191.125 51.9551 188.76 51.9551C186.586 51.9551 184.994 52.9805 183.982 55.0312C182.984 57.0684 182.485 60.0762 182.485 64.0547C182.485 67.0488 182.806 69.4551 183.449 71.2734C184.433 74.0488 186.115 75.4365 188.494 75.4365Z" fill="#19FB9B"/>
</svg>
